# Blender v2.63 (sub 0) OBJ File: ''
# www.blender.org
o Mesh.006_Text_Textss.008
v -0.064423 0.199433 0.081078
v 0.055003 -0.314235 0.081003
v 0.055003 0.268213 0.081088
v -0.064423 -0.314235 0.081003
v 0.055003 -0.314202 -0.147397
v -0.064423 0.199467 -0.147322
v 0.055003 0.268247 -0.147312
v -0.064423 -0.314202 -0.147397
v -0.072023 -0.321802 -0.145361
v -0.072023 0.203859 -0.145284
v -0.064423 0.199467 -0.147322
v -0.064423 -0.314202 -0.147397
v -0.077587 -0.327366 -0.139799
v -0.077587 0.207074 -0.139721
v -0.079622 -0.329404 -0.132200
v -0.079622 0.208250 -0.132121
v 0.062601 0.281393 -0.145273
v 0.055003 0.268247 -0.147312
v 0.068165 0.291017 -0.139709
v 0.070201 0.294539 -0.132108
v 0.062601 -0.321802 -0.145361
v 0.055003 -0.314202 -0.147397
v 0.068165 -0.327366 -0.139799
v 0.070201 -0.329404 -0.132200
v -0.079622 -0.329433 0.065800
v -0.079622 0.208221 0.065879
v -0.079622 0.208250 -0.132121
v -0.079622 -0.329404 -0.132200
v 0.070201 0.294510 0.065892
v 0.070201 0.294539 -0.132108
v 0.070201 -0.329433 0.065800
v 0.070201 -0.329404 -0.132200
v -0.077587 -0.327397 0.073401
v -0.077587 0.207043 0.073479
v -0.079622 0.208221 0.065879
v -0.079622 -0.329433 0.065800
v -0.072023 -0.321835 0.078966
v -0.072023 0.203826 0.079043
v -0.064423 -0.314235 0.081003
v -0.064423 0.199433 0.081078
v 0.068165 0.290986 0.073491
v 0.070201 0.294510 0.065892
v 0.062601 0.281360 0.079054
v 0.055003 0.268213 0.081088
v 0.068165 -0.327397 0.073401
v 0.070201 -0.329433 0.065800
v 0.062601 -0.321835 0.078966
v 0.055003 -0.314235 0.081003
vt 0.000000 0.000000
vt 0.056454 0.862445
vt 0.943555 0.000000
vt 0.943555 0.977926
vt 0.056454 0.000000
vt 1.000000 1.000000
vt 0.000000 0.869821
vn 0.000000 0.000146 -1.000000
vn -0.333140 -0.333048 -0.882077
vn -0.443281 0.256386 -0.858913
vn -0.195685 0.113254 -0.974090
vn -0.131657 -0.131504 -0.982513
vn -0.588580 -0.588427 -0.554308
vn -0.744743 0.430586 -0.509812
vn -0.661184 -0.661184 -0.354442
vn -0.827052 0.478133 -0.295541
vn 0.192145 0.332591 -0.923276
vn 0.066530 0.115238 -0.991089
vn 0.385144 0.666341 -0.638417
vn 0.441176 0.763329 -0.471847
vn 0.333140 -0.333048 -0.882077
vn 0.131687 -0.131504 -0.982513
vn 0.588580 -0.588427 -0.554338
vn 0.661184 -0.661184 -0.354442
vn -0.707083 -0.707083 -0.000092
vn -0.865749 0.500443 0.000061
vn 0.500443 0.865749 0.000122
vn 0.707083 -0.707083 -0.000092
vn -0.588580 -0.588610 0.554125
vn -0.744774 0.430433 0.509903
vn -0.827052 0.478042 0.295663
vn -0.661184 -0.661275 0.354228
vn -0.333140 -0.333323 0.881954
vn -0.443312 0.256142 0.858974
vn -0.131596 -0.131748 0.982482
vn -0.195593 0.112918 0.974151
vn 0.385144 0.666189 0.638600
vn 0.441176 0.763207 0.472060
vn 0.192175 0.332347 0.923338
vn 0.588580 -0.588610 0.554125
vn 0.661184 -0.661275 0.354259
vn 0.333171 -0.333323 0.881954
vn 0.066500 0.114872 0.991119
vn 0.131626 -0.131748 0.982482
vn -0.000000 -0.000146 1.000000
s off
f 5/1/1 6/1/1 7/1/1
f 5/1/1 8/1/1 6/1/1
s 1
f 9/1/2 10/1/3 11/1/4
f 9/1/2 11/1/4 12/1/5
f 13/1/6 14/1/7 10/1/3
f 13/1/6 10/1/3 9/1/2
f 15/1/8 16/1/9 14/1/7
f 15/1/8 14/1/7 13/1/6
f 10/1/3 17/1/10 18/1/11
f 10/1/3 18/1/11 11/1/4
f 14/1/7 19/1/12 17/1/10
f 14/1/7 17/1/10 10/1/3
f 16/1/9 20/1/13 19/1/12
f 16/1/9 19/1/12 14/1/7
f 17/1/10 21/1/14 22/1/15
f 17/1/10 22/1/15 18/1/11
f 19/1/12 23/1/16 21/1/14
f 19/1/12 21/1/14 17/1/10
f 20/1/13 24/1/17 23/1/16
f 20/1/13 23/1/16 19/1/12
f 21/1/14 9/1/2 12/1/5
f 21/1/14 12/1/5 22/1/15
f 23/1/16 13/1/6 9/1/2
f 23/1/16 9/1/2 21/1/14
f 24/1/17 15/1/8 13/1/6
f 24/1/17 13/1/6 23/1/16
f 25/1/18 26/1/19 27/1/19
f 25/1/18 27/1/19 28/1/18
f 26/1/19 29/1/20 30/1/20
f 26/1/19 30/1/20 27/1/19
f 29/1/20 31/1/21 32/1/21
f 29/1/20 32/1/21 30/1/20
f 31/1/21 25/1/18 28/1/18
f 31/1/21 28/1/18 32/1/21
f 33/1/22 34/1/23 35/1/24
f 33/1/22 35/1/24 36/1/25
f 37/1/26 38/1/27 34/1/23
f 37/1/26 34/1/23 33/1/22
f 39/1/28 40/1/29 38/1/27
f 39/1/28 38/1/27 37/1/26
f 34/1/23 41/1/30 42/1/31
f 34/1/23 42/1/31 35/1/24
f 38/1/27 43/1/32 41/1/30
f 38/1/27 41/1/30 34/1/23
f 41/1/30 45/1/33 46/1/34
f 41/1/30 46/1/34 42/1/31
f 43/1/32 47/1/35 45/1/33
f 43/1/32 45/1/33 41/1/30
f 44/1/36 48/1/37 47/1/35
f 44/1/36 47/1/35 43/1/32
f 45/1/33 33/1/22 36/1/25
f 45/1/33 36/1/25 46/1/34
f 47/1/35 37/1/26 33/1/22
f 47/1/35 33/1/22 45/1/33
f 48/1/37 39/1/28 37/1/26
f 48/1/37 37/1/26 47/1/35
s off
f 1/2/38 2/3/38 3/4/38
f 2/3/38 1/2/38 4/5/38
s 1
f 40/2/29 44/4/36 43/6/32
f 40/2/29 43/6/32 38/7/27
