# Blender v2.63 (sub 0) OBJ File: ''
# www.blender.org
o Mesh.009_Text_Textss.011
v -0.238174 -0.173275 0.081023
v 0.068113 0.278205 0.081089
v 0.021710 0.278205 0.081089
v 0.068113 0.139221 0.081069
v -0.106517 -0.173275 0.081023
v -0.034246 -0.172808 0.081023
v 0.131812 0.019711 0.081052
v 0.070400 0.019711 0.081052
v 0.131812 -0.055495 0.081041
v 0.193045 -0.055495 0.081041
v 0.011459 -0.171769 0.081024
v 0.193045 -0.172282 0.081023
v 0.012695 -0.313447 0.081003
v 0.131846 -0.173514 0.081023
v 0.131436 -0.313789 0.081003
v 0.068113 0.278239 -0.147311
v -0.238174 -0.173242 -0.147377
v 0.021710 0.278239 -0.147311
v 0.068113 0.139254 -0.147331
v -0.106517 -0.173242 -0.147377
v 0.131812 0.019744 -0.147348
v -0.034246 -0.172775 -0.147377
v 0.070400 0.019744 -0.147348
v 0.131812 -0.055461 -0.147359
v 0.193045 -0.055461 -0.147359
v 0.011459 -0.171736 -0.147376
v 0.193045 -0.172249 -0.147377
v 0.131846 -0.173481 -0.147377
v 0.012695 -0.313414 -0.147397
v 0.131436 -0.313756 -0.147397
v -0.251318 -0.180842 -0.145341
v 0.017315 0.285838 -0.145273
v 0.021710 0.278239 -0.147311
v -0.238174 -0.173242 -0.147377
v -0.260940 -0.186407 -0.139779
v 0.014098 0.291401 -0.139709
v -0.264462 -0.188444 -0.132179
v 0.012921 0.293436 -0.132108
v 0.075713 0.285838 -0.145273
v 0.068113 0.278239 -0.147311
v 0.081277 0.291401 -0.139709
v 0.083313 0.293436 -0.132108
v 0.075713 0.137274 -0.145294
v 0.068113 0.139254 -0.147331
v 0.081277 0.135824 -0.139731
v 0.083313 0.135293 -0.132132
v -0.102058 -0.180842 -0.145341
v -0.106517 -0.173242 -0.147377
v -0.098794 -0.186407 -0.139779
v -0.097599 -0.188444 -0.132179
v -0.264462 -0.188473 0.065821
v 0.012921 0.293407 0.065892
v 0.012921 0.293436 -0.132108
v -0.264462 -0.188444 -0.132179
v 0.083313 0.293407 0.065892
v 0.083313 0.293436 -0.132108
v 0.083313 0.135264 0.065868
v 0.083313 0.135293 -0.132132
v -0.097599 -0.188473 0.065821
v -0.097599 -0.188444 -0.132179
v -0.260940 -0.186438 0.073421
v 0.014098 0.291370 0.073491
v 0.012921 0.293407 0.065892
v -0.264462 -0.188473 0.065821
v -0.251318 -0.180875 0.078986
v 0.017315 0.285805 0.079055
v -0.238174 -0.173275 0.081023
v 0.021710 0.278205 0.081089
v 0.081277 0.291370 0.073491
v 0.083313 0.293407 0.065892
v 0.075713 0.285805 0.079055
v 0.068113 0.278205 0.081089
v 0.081277 0.135793 0.073469
v 0.083313 0.135264 0.065868
v 0.075713 0.137241 0.079033
v 0.068113 0.139221 0.081069
v -0.098794 -0.186438 0.073421
v -0.097599 -0.188473 0.065821
v -0.102058 -0.180875 0.078986
v -0.106517 -0.173275 0.081023
v -0.047188 -0.180671 -0.145341
v 0.065881 0.027344 -0.145310
v 0.070400 0.019744 -0.147348
v -0.034246 -0.172775 -0.147377
v -0.056662 -0.186452 -0.139779
v 0.062573 0.032906 -0.139746
v -0.060130 -0.188569 -0.132179
v 0.061362 0.034942 -0.132146
v 0.139412 0.027344 -0.145310
v 0.131812 0.019744 -0.147348
v 0.144976 0.032906 -0.139746
v 0.147012 0.034942 -0.132146
v 0.139412 -0.047862 -0.145321
v 0.131812 -0.055461 -0.147359
v 0.144976 -0.042299 -0.139757
v 0.147012 -0.040264 -0.132157
v 0.200645 -0.047862 -0.145321
v 0.193045 -0.055461 -0.147359
v 0.206209 -0.042299 -0.139757
v 0.208245 -0.040264 -0.132157
v 0.200645 -0.179697 -0.145341
v 0.193045 -0.172249 -0.147377
v 0.206209 -0.185151 -0.139778
v 0.208245 -0.187148 -0.132179
v 0.139425 -0.180930 -0.145341
v 0.131846 -0.173481 -0.147377
v 0.144972 -0.186384 -0.139779
v 0.147003 -0.188381 -0.132179
v 0.139014 -0.321378 -0.145361
v 0.131436 -0.313756 -0.147397
v 0.144561 -0.326959 -0.139799
v 0.146592 -0.329002 -0.132199
v 0.005161 -0.320992 -0.145361
v 0.012695 -0.313414 -0.147397
v -0.000355 -0.326541 -0.139799
v -0.002374 -0.328573 -0.132199
v 0.003927 -0.179509 -0.145341
v 0.011459 -0.171736 -0.147376
v -0.001587 -0.185201 -0.139778
v -0.003606 -0.187284 -0.132179
v -0.060130 -0.188598 0.065821
v 0.061362 0.034913 0.065854
v 0.061362 0.034942 -0.132146
v -0.060130 -0.188569 -0.132179
v 0.147012 0.034913 0.065854
v 0.147012 0.034942 -0.132146
v 0.147012 -0.040293 0.065843
v 0.147012 -0.040264 -0.132157
v 0.208245 -0.040293 0.065843
v 0.208245 -0.040264 -0.132157
v 0.208245 -0.187177 0.065821
v 0.208245 -0.187148 -0.132179
v 0.147003 -0.188410 0.065821
v 0.147003 -0.188381 -0.132179
v 0.146592 -0.329031 0.065801
v 0.146592 -0.329002 -0.132199
v -0.002374 -0.328602 0.065801
v -0.002374 -0.328573 -0.132199
v -0.003606 -0.187313 0.065821
v -0.003606 -0.187284 -0.132179
v -0.056662 -0.186483 0.073421
v 0.062573 0.032875 0.073453
v 0.061362 0.034913 0.065854
v -0.060130 -0.188598 0.065821
v -0.047188 -0.180704 0.078986
v 0.065881 0.027311 0.079017
v -0.034246 -0.172808 0.081023
v 0.070400 0.019711 0.081052
v 0.144976 0.032875 0.073453
v 0.147012 0.034913 0.065854
v 0.139412 0.027311 0.079017
v 0.131812 0.019711 0.081052
v 0.144976 -0.042330 0.073442
v 0.147012 -0.040293 0.065843
v 0.139412 -0.047895 0.079006
v 0.131812 -0.055495 0.081041
v 0.206209 -0.042330 0.073442
v 0.208245 -0.040293 0.065843
v 0.200645 -0.047895 0.079006
v 0.193045 -0.055495 0.081041
v 0.206209 -0.185182 0.073422
v 0.208245 -0.187177 0.065821
v 0.200645 -0.179730 0.078986
v 0.193045 -0.172282 0.081023
v 0.144972 -0.186415 0.073421
v 0.147003 -0.188410 0.065821
v 0.139425 -0.180963 0.078986
v 0.131846 -0.173514 0.081023
v 0.144561 -0.326990 0.073401
v 0.146592 -0.329031 0.065801
v 0.139014 -0.321411 0.078966
v 0.131436 -0.313789 0.081003
v -0.000355 -0.326572 0.073401
v -0.002374 -0.328602 0.065801
v 0.005161 -0.321025 0.078966
v 0.012695 -0.313447 0.081003
v -0.001587 -0.185232 0.073422
v -0.003606 -0.187313 0.065821
v 0.003927 -0.179542 0.078986
v 0.011459 -0.171769 0.081024
vt 0.048734 0.248587
vt 0.704386 0.978712
vt 0.605053 0.978712
vt 0.704386 0.753949
vt 0.330565 0.248587
vt 0.485271 0.249342
vt 0.840743 0.560680
vt 0.709281 0.560680
vt 0.840743 0.439059
vt 0.971821 0.439059
vt 0.583110 0.251022
vt 0.971821 0.250192
vt 0.585755 0.021903
vt 0.840815 0.248200
vt 0.000000 0.000000
vt 0.839938 0.021350
vt 0.020597 0.236296
vt 0.595645 0.991002
vt 0.588759 1.000000
vt 0.000000 0.227298
vt 0.720654 0.991002
vt 0.732565 1.000000
vt 0.720654 0.750747
vt 0.732565 0.748404
vt 0.340110 0.236296
vt 0.347097 0.227298
vt 0.457567 0.236573
vt 0.699607 0.572971
vt 0.692527 0.581967
vt 0.437287 0.227225
vt 0.857011 0.572971
vt 0.868922 0.581967
vt 0.857011 0.451349
vt 0.868922 0.460347
vt 0.988089 0.451349
vt 0.988089 0.238148
vt 0.857039 0.236154
vt 0.868914 0.227335
vt 1.000000 0.229329
vt 0.856160 0.009024
vt 0.868034 0.000000
vt 0.569628 0.009648
vt 0.557820 0.000676
vt 0.566986 0.238452
vt 0.555183 0.229249
vn 0.000000 -0.000146 1.000000
vn 0.000000 -0.000145 1.000000
vn 0.000000 0.000146 -1.000000
vn -0.000000 0.000149 -1.000000
vn -0.332469 -0.192083 -0.923307
vn -0.256294 0.443373 -0.858882
vn -0.113132 0.195807 -0.974090
vn -0.115085 -0.066408 -0.991119
vn -0.666250 -0.385144 -0.638508
vn -0.430586 0.744774 -0.509751
vn -0.763237 -0.441206 -0.471938
vn -0.478164 0.827052 -0.295511
vn 0.333140 0.333262 -0.881985
vn 0.131657 0.131809 -0.982482
vn 0.588549 0.588641 -0.554125
vn 0.661214 0.661275 -0.354198
vn 0.502670 -0.130802 -0.854488
vn 0.242958 -0.063112 -0.967956
vn 0.841945 -0.219214 -0.492965
vn 0.932615 -0.242836 -0.266823
vn 0.258827 -0.440992 -0.859340
vn 0.113956 -0.194128 -0.974303
vn 0.435072 -0.741508 -0.510697
vn 0.483261 -0.823603 -0.296762
vn -0.865688 -0.500534 -0.000061
vn -0.500534 0.865688 0.000122
vn 0.707083 0.707083 0.000092
vn 0.967711 -0.252022 -0.000031
vn 0.506027 -0.862484 -0.000122
vn -0.666280 -0.385357 0.638386
vn -0.430586 0.744652 0.509964
vn -0.478164 0.826960 0.295755
vn -0.763237 -0.441359 0.471816
vn -0.332499 -0.192358 0.923246
vn -0.256294 0.443129 0.859004
vn -0.115024 -0.066652 0.991119
vn -0.113071 0.195410 0.974151
vn 0.588549 0.588488 0.554277
vn 0.661214 0.661184 0.354381
vn 0.333171 0.333018 0.882077
vn 0.131596 0.131443 0.982543
vn 0.841975 -0.219367 0.492874
vn 0.932615 -0.242927 0.266762
vn 0.502670 -0.131046 0.854457
vn 0.242836 -0.063387 0.967986
vn 0.435102 -0.741661 0.510453
vn 0.483261 -0.823695 0.296518
vn 0.258827 -0.441267 0.859218
vn 0.113895 -0.194311 0.974273
vn -0.328196 -0.200079 -0.923154
vn -0.261147 0.439314 -0.859523
vn -0.114719 0.193091 -0.974425
vn -0.113651 -0.069185 -0.991089
vn -0.657247 -0.400891 -0.638173
vn -0.439222 0.738731 -0.511185
vn -0.752831 -0.459273 -0.471450
vn -0.487899 0.820582 -0.297525
vn 0.333140 0.333293 -0.881985
vn 0.588580 0.588610 -0.554155
vn 0.661184 0.661275 -0.354259
vn 0.208533 0.208655 -0.955473
vn 0.513443 0.513535 -0.687460
vn 0.661214 0.661275 -0.354167
vn 0.338145 -0.331278 -0.880825
vn 0.134251 -0.131443 -0.982177
vn 0.595569 -0.583575 -0.551988
vn 0.668661 -0.655293 -0.351329
vn 0.213446 -0.209693 -0.954161
vn 0.134251 -0.131809 -0.982116
vn 0.521256 -0.512223 -0.682546
vn 0.667806 -0.656362 -0.350963
vn 0.332194 -0.333995 -0.882077
vn 0.131260 -0.131901 -0.982513
vn 0.586810 -0.590167 -0.554338
vn 0.659291 -0.663045 -0.354472
vn -0.333110 -0.334941 -0.881375
vn -0.132023 -0.132633 -0.982330
vn -0.587451 -0.590808 -0.552995
vn -0.659719 -0.663564 -0.352702
vn -0.203345 -0.209723 -0.956359
vn -0.128697 -0.132664 -0.982757
vn -0.503281 -0.519211 -0.690725
vn -0.650105 -0.670919 -0.356639
vn -0.853633 -0.520798 -0.000061
vn -0.511063 0.859523 0.000122
vn 0.714164 -0.699942 -0.000092
vn 0.713157 -0.700980 -0.000092
vn 0.705039 -0.709128 -0.000092
vn -0.705039 -0.709159 -0.000092
vn -0.695883 -0.718131 -0.000092
vn -0.657247 -0.401074 0.638050
vn -0.439222 0.738578 0.511368
vn -0.487899 0.820521 0.297769
vn -0.752831 -0.459395 0.471297
vn -0.328227 -0.200354 0.923093
vn -0.261147 0.439070 0.859645
vn -0.113590 -0.069460 0.991089
vn -0.114658 0.192694 0.974517
vn 0.588580 0.588458 0.554308
vn 0.661184 0.661184 0.354442
vn 0.333140 0.333079 0.882046
vn 0.513474 0.513382 0.687551
vn 0.208502 0.208350 0.955565
vn 0.588580 0.588488 0.554277
vn 0.595569 -0.583758 0.551775
vn 0.668661 -0.655416 0.351146
vn 0.338145 -0.331553 0.880734
vn 0.134190 -0.131657 0.982147
vn 0.521287 -0.512436 0.682363
vn 0.667806 -0.656484 0.350780
vn 0.213416 -0.209937 0.954131
vn 0.134190 -0.132023 0.982116
vn 0.586840 -0.590350 0.554125
vn 0.659291 -0.663137 0.354289
vn 0.332224 -0.334269 0.881954
vn 0.131199 -0.132115 0.982482
vn -0.587451 -0.590960 0.552812
vn -0.659719 -0.663656 0.352489
vn -0.333140 -0.335215 0.881252
vn -0.131932 -0.132847 0.982299
vn -0.503311 -0.519456 0.690512
vn -0.650105 -0.671010 0.356456
vn -0.203314 -0.209967 0.956328
vn -0.128636 -0.132878 0.982727
s off
f 1/1/1 2/2/1 3/3/1
f 1/1/1 4/4/1 2/2/1
f 1/1/1 5/5/1 4/4/1
f 6/6/1 7/7/1 8/8/1
f 6/6/1 9/9/1 7/7/1
f 6/6/1 10/10/1 9/9/1
f 6/6/1 11/11/1 10/10/1
f 11/11/1 12/12/1 10/10/1
f 13/13/1 14/14/1 11/11/1
f 14/15/2 12/15/2 11/15/2
f 13/13/1 15/16/1 14/14/1
f 16/15/3 17/15/3 18/15/3
f 19/15/3 17/15/3 16/15/3
f 20/15/3 17/15/3 19/15/3
f 21/15/3 22/15/3 23/15/3
f 24/15/3 22/15/3 21/15/3
f 25/15/3 22/15/3 24/15/3
f 26/15/3 22/15/3 25/15/3
f 27/15/3 26/15/3 25/15/3
f 28/15/3 29/15/3 26/15/3
f 27/15/4 28/15/4 26/15/4
f 30/15/3 29/15/3 28/15/3
s 1
f 31/15/5 32/15/6 33/15/7
f 31/15/5 33/15/7 34/15/8
f 35/15/9 36/15/10 32/15/6
f 35/15/9 32/15/6 31/15/5
f 37/15/11 38/15/12 36/15/10
f 37/15/11 36/15/10 35/15/9
f 32/15/6 39/15/13 40/15/14
f 32/15/6 40/15/14 33/15/7
f 36/15/10 41/15/15 39/15/13
f 36/15/10 39/15/13 32/15/6
f 38/15/12 42/15/16 41/15/15
f 38/15/12 41/15/15 36/15/10
f 39/15/13 43/15/17 44/15/18
f 39/15/13 44/15/18 40/15/14
f 41/15/15 45/15/19 43/15/17
f 41/15/15 43/15/17 39/15/13
f 42/15/16 46/15/20 45/15/19
f 42/15/16 45/15/19 41/15/15
f 43/15/17 47/15/21 48/15/22
f 43/15/17 48/15/22 44/15/18
f 45/15/19 49/15/23 47/15/21
f 45/15/19 47/15/21 43/15/17
f 46/15/20 50/15/24 49/15/23
f 46/15/20 49/15/23 45/15/19
f 47/15/21 31/15/5 34/15/8
f 47/15/21 34/15/8 48/15/22
f 49/15/23 35/15/9 31/15/5
f 49/15/23 31/15/5 47/15/21
f 50/15/24 37/15/11 35/15/9
f 50/15/24 35/15/9 49/15/23
f 51/15/25 52/15/26 53/15/26
f 51/15/25 53/15/26 54/15/25
f 52/15/26 55/15/27 56/15/27
f 52/15/26 56/15/27 53/15/26
f 55/15/27 57/15/28 58/15/28
f 55/15/27 58/15/28 56/15/27
f 57/15/28 59/15/29 60/15/29
f 57/15/28 60/15/29 58/15/28
f 59/15/29 51/15/25 54/15/25
f 59/15/29 54/15/25 60/15/29
f 61/15/30 62/15/31 63/15/32
f 61/15/30 63/15/32 64/15/33
f 65/17/34 66/18/35 62/19/31
f 65/17/34 62/19/31 61/20/30
f 67/1/36 68/3/37 66/18/35
f 67/1/36 66/18/35 65/17/34
f 62/15/31 69/15/38 70/15/39
f 62/15/31 70/15/39 63/15/32
f 66/18/35 71/21/40 69/22/38
f 66/18/35 69/22/38 62/19/31
f 68/3/37 72/2/41 71/21/40
f 68/3/37 71/21/40 66/18/35
f 69/15/38 73/15/42 74/15/43
f 69/15/38 74/15/43 70/15/39
f 71/21/40 75/23/44 73/24/42
f 71/21/40 73/24/42 69/22/38
f 72/2/41 76/4/45 75/23/44
f 72/2/41 75/23/44 71/21/40
f 73/15/42 77/15/46 78/15/47
f 73/15/42 78/15/47 74/15/43
f 75/23/44 79/25/48 77/26/46
f 75/23/44 77/26/46 73/24/42
f 76/4/45 80/5/49 79/25/48
f 76/4/45 79/25/48 75/23/44
f 77/15/46 61/15/30 64/15/33
f 77/15/46 64/15/33 78/15/47
f 79/25/48 65/17/34 61/20/30
f 79/25/48 61/20/30 77/26/46
f 80/5/49 67/1/36 65/17/34
f 80/5/49 65/17/34 79/25/48
f 81/15/50 82/15/51 83/15/52
f 81/15/50 83/15/52 84/15/53
f 85/15/54 86/15/55 82/15/51
f 85/15/54 82/15/51 81/15/50
f 87/15/56 88/15/57 86/15/55
f 87/15/56 86/15/55 85/15/54
f 82/15/51 89/15/58 90/15/14
f 82/15/51 90/15/14 83/15/52
f 86/15/55 91/15/59 89/15/58
f 86/15/55 89/15/58 82/15/51
f 88/15/57 92/15/60 91/15/59
f 88/15/57 91/15/59 86/15/55
f 89/15/58 93/15/61 94/15/14
f 89/15/58 94/15/14 90/15/14
f 91/15/59 95/15/62 93/15/61
f 91/15/59 93/15/61 89/15/58
f 92/15/60 96/15/16 95/15/62
f 92/15/60 95/15/62 91/15/59
f 93/15/61 97/15/13 98/15/14
f 93/15/61 98/15/14 94/15/14
f 95/15/62 99/15/15 97/15/13
f 95/15/62 97/15/13 93/15/61
f 96/15/16 100/15/63 99/15/15
f 96/15/16 99/15/15 95/15/62
f 97/15/13 101/15/64 102/15/65
f 97/15/13 102/15/65 98/15/14
f 99/15/15 103/15/66 101/15/64
f 99/15/15 101/15/64 97/15/13
f 100/15/63 104/15/67 103/15/66
f 100/15/63 103/15/66 99/15/15
f 101/15/64 105/15/68 106/15/69
f 101/15/64 106/15/69 102/15/65
f 103/15/66 107/15/70 105/15/68
f 103/15/66 105/15/68 101/15/64
f 104/15/67 108/15/71 107/15/70
f 104/15/67 107/15/70 103/15/66
f 105/15/68 109/15/72 110/15/73
f 105/15/68 110/15/73 106/15/69
f 107/15/70 111/15/74 109/15/72
f 107/15/70 109/15/72 105/15/68
f 108/15/71 112/15/75 111/15/74
f 108/15/71 111/15/74 107/15/70
f 109/15/72 113/15/76 114/15/77
f 109/15/72 114/15/77 110/15/73
f 111/15/74 115/15/78 113/15/76
f 111/15/74 113/15/76 109/15/72
f 112/15/75 116/15/79 115/15/78
f 112/15/75 115/15/78 111/15/74
f 113/15/76 117/15/80 118/15/81
f 113/15/76 118/15/81 114/15/77
f 115/15/78 119/15/82 117/15/80
f 115/15/78 117/15/80 113/15/76
f 116/15/79 120/15/83 119/15/82
f 116/15/79 119/15/82 115/15/78
f 117/15/80 81/15/50 84/15/53
f 117/15/80 84/15/53 118/15/81
f 119/15/82 85/15/54 81/15/50
f 119/15/82 81/15/50 117/15/80
f 120/15/83 87/15/56 85/15/54
f 120/15/83 85/15/54 119/15/82
f 121/15/84 122/15/85 123/15/85
f 121/15/84 123/15/85 124/15/84
f 122/15/85 125/15/27 126/15/27
f 122/15/85 126/15/27 123/15/85
f 125/15/27 127/15/27 128/15/27
f 125/15/27 128/15/27 126/15/27
f 127/15/27 129/15/27 130/15/27
f 127/15/27 130/15/27 128/15/27
f 129/15/27 131/15/86 132/15/86
f 129/15/27 132/15/86 130/15/27
f 131/15/86 133/15/87 134/15/87
f 131/15/86 134/15/87 132/15/86
f 133/15/87 135/15/88 136/15/88
f 133/15/87 136/15/88 134/15/87
f 135/15/88 137/15/89 138/15/89
f 135/15/88 138/15/89 136/15/88
f 137/15/89 139/15/90 140/15/90
f 137/15/89 140/15/90 138/15/89
f 139/15/90 121/15/84 124/15/84
f 139/15/90 124/15/84 140/15/90
f 141/15/91 142/15/92 143/15/93
f 141/15/91 143/15/93 144/15/94
f 145/27/95 146/28/96 142/29/92
f 145/27/95 142/29/92 141/30/91
f 147/6/97 148/8/98 146/28/96
f 147/6/97 146/28/96 145/27/95
f 142/15/92 149/15/99 150/15/100
f 142/15/92 150/15/100 143/15/93
f 146/28/96 151/31/101 149/32/99
f 146/28/96 149/32/99 142/29/92
f 148/8/98 152/7/41 151/31/101
f 148/8/98 151/31/101 146/28/96
f 149/15/99 153/15/102 154/15/39
f 149/15/99 154/15/39 150/15/100
f 151/31/101 155/33/103 153/34/102
f 151/31/101 153/34/102 149/32/99
f 152/7/41 156/9/41 155/33/103
f 152/7/41 155/33/103 151/31/101
f 153/15/102 157/15/104 158/15/39
f 153/15/102 158/15/39 154/15/39
f 155/15/103 159/15/40 157/15/104
f 155/15/103 157/15/104 153/15/102
f 156/9/41 160/10/41 159/35/40
f 156/9/41 159/35/40 155/33/103
f 157/15/104 161/15/105 162/15/106
f 157/15/104 162/15/106 158/15/39
f 159/15/40 163/15/107 161/15/105
f 159/15/40 161/15/105 157/15/104
f 160/10/41 164/12/108 163/36/107
f 160/10/41 163/36/107 159/35/40
f 161/15/105 165/15/109 166/15/110
f 161/15/105 166/15/110 162/15/106
f 163/36/107 167/37/111 165/38/109
f 163/36/107 165/38/109 161/39/105
f 164/12/108 168/14/112 167/37/111
f 164/12/108 167/37/111 163/36/107
f 165/15/109 169/15/113 170/15/114
f 165/15/109 170/15/114 166/15/110
f 167/37/111 171/40/115 169/41/113
f 167/37/111 169/41/113 165/38/109
f 168/14/112 172/16/116 171/40/115
f 168/14/112 171/40/115 167/37/111
f 169/15/113 173/15/117 174/15/118
f 169/15/113 174/15/118 170/15/114
f 171/40/115 175/42/119 173/43/117
f 171/40/115 173/43/117 169/41/113
f 172/16/116 176/13/120 175/42/119
f 172/16/116 175/42/119 171/40/115
f 173/15/117 177/15/121 178/15/122
f 173/15/117 178/15/122 174/15/118
f 175/42/119 179/44/123 177/45/121
f 175/42/119 177/45/121 173/43/117
f 176/13/120 180/11/124 179/44/123
f 176/13/120 179/44/123 175/42/119
f 177/15/121 141/15/91 144/15/94
f 177/15/121 144/15/94 178/15/122
f 179/44/123 145/27/95 141/30/91
f 179/44/123 141/30/91 177/45/121
f 180/11/124 147/6/97 145/27/95
f 180/11/124 145/27/95 179/44/123
